<svg width="360" height="160" viewBox="0 0 360 160" fill="none" xmlns="http://www.w3.org/2000/svg">
  <rect width="360" height="160" rx="24" fill="#FFFFFF"/>
  <g transform="translate(34 25)">
    <path d="M55 9v40" stroke="#073B6F" stroke-width="8" stroke-linecap="round"/>
    <path d="M51 48C38 25 17 22 9 41 0 62 8 90 32 96c13 3 22-7 22-23V48Z" fill="#DDF1FF" stroke="#1976C9" stroke-width="5"/>
    <path d="M59 48C72 25 93 22 101 41c9 21 1 49-23 55-13 3-22-7-22-23V48Z" fill="#DDF1FF" stroke="#1976C9" stroke-width="5"/>
    <path d="M26 8h58l9 15H17l9-15Z" fill="#F7941D"/>
    <path d="M20 26h70" stroke="#43A047" stroke-width="5" stroke-linecap="round"/>
    <path d="M30 8 45 23M50 8 65 23M70 8 85 23" stroke="#073B6F" stroke-width="3" opacity=".28"/>
  </g>
  <text x="162" y="65" fill="#073B6F" font-family="Arial, sans-serif" font-size="30" font-weight="800">SOBAT BADUY</text>
  <text x="164" y="94" fill="#64748B" font-family="Arial, sans-serif" font-size="14" font-weight="700">Sistem Operasional Berantas TBC Baduy</text>
  <text x="164" y="118" fill="#1976C9" font-family="Arial, sans-serif" font-size="13">Bagian dari Program SI-KASEP</text>
</svg>
